HIERARCHY
ROOT Hips
{
	OFFSET 0.000000 100.481300 0.000000
	CHANNELS 6 Xposition Yposition Zposition Xrotation Yrotation Zrotation
	JOINT Spine
	{
		OFFSET -0.279200 12.230698 -2.892100
		CHANNELS 3 Xrotation Yrotation Zrotation
		JOINT Spine1
		{
			OFFSET -0.325700 14.269203 -3.374200
			CHANNELS 3 Xrotation Yrotation Zrotation
			JOINT Spine2
			{
				OFFSET -0.372300 16.307602 -0.352600
				CHANNELS 3 Xrotation Yrotation Zrotation
				JOINT Neck
				{
					OFFSET -0.418800 17.814194 8.416900
					CHANNELS 3 Xrotation Yrotation Zrotation
					JOINT Head
					{
						OFFSET 0.000000 7.031097 3.806800
						CHANNELS 3 Xrotation Yrotation Zrotation
						JOINT HeadTop_End
						{
							OFFSET 0.000000 24.646606 12.978600
							CHANNELS 3 Xrotation Yrotation Zrotation
							End Site
							{
								OFFSET 0.000000 27.854965 0.000000
							}
						}
					}
				}
				JOINT LeftShoulder
				{
					OFFSET 16.952999 14.495407 -7.737500
					CHANNELS 3 Xrotation Yrotation Zrotation
					JOINT LeftArm
					{
						OFFSET 9.308998 -2.777710 0.208600
						CHANNELS 3 Xrotation Yrotation Zrotation
						JOINT LeftForeArm
						{
							OFFSET 29.972298 0.000000 0.000000
							CHANNELS 3 Xrotation Yrotation Zrotation
							JOINT LeftHand
							{
								OFFSET 26.026505 0.000000 0.000000
								CHANNELS 3 Xrotation Yrotation Zrotation
								JOINT LeftHandThumb1
								{
									OFFSET 12.240501 -7.147949 9.207150
									CHANNELS 3 Xrotation Yrotation Zrotation
									JOINT LeftHandThumb2
									{
										OFFSET 4.138618 -2.389435 2.389433
										CHANNELS 3 Xrotation Yrotation Zrotation
										JOINT LeftHandThumb3
										{
											OFFSET 2.726913 -1.574387 1.574386
											CHANNELS 3 Xrotation Yrotation Zrotation
											JOINT LeftHandThumb4
											{
												OFFSET 3.941010 -2.275345 2.275342
												CHANNELS 3 Xrotation Yrotation Zrotation
												End Site
												{
													OFFSET -0.005798 5.087799 0.009903
												}
											}
										}
									}
								}
								JOINT LeftHandIndex1
								{
									OFFSET 24.424698 -1.985611 5.953459
									CHANNELS 3 Xrotation Yrotation Zrotation
									JOINT LeftHandIndex2
									{
										OFFSET 6.426697 0.000000 0.000000
										CHANNELS 3 Xrotation Yrotation Zrotation
										JOINT LeftHandIndex3
										{
											OFFSET 5.337898 0.000000 0.000000
											CHANNELS 3 Xrotation Yrotation Zrotation
											JOINT LeftHandIndex4
											{
												OFFSET 4.409401 0.000000 0.000000
												CHANNELS 3 Xrotation Yrotation Zrotation
												End Site
												{
													OFFSET 0.000000 4.409363 0.014373
												}
											}
										}
									}
								}
								JOINT LeftHandMiddle1
								{
									OFFSET 23.810104 0.000000 0.000000
									CHANNELS 3 Xrotation Yrotation Zrotation
									JOINT LeftHandMiddle2
									{
										OFFSET 7.176498 0.000000 0.000000
										CHANNELS 3 Xrotation Yrotation Zrotation
										JOINT LeftHandMiddle3
										{
											OFFSET 6.774902 0.000000 0.000000
											CHANNELS 3 Xrotation Yrotation Zrotation
											JOINT LeftHandMiddle4
											{
												OFFSET 5.403328 0.000000 0.000000
												CHANNELS 3 Xrotation Yrotation Zrotation
												End Site
												{
													OFFSET -0.027702 5.403244 0.017414
												}
											}
										}
									}
								}
								JOINT LeftHandRing1
								{
									OFFSET 22.908401 -0.839279 -6.020567
									CHANNELS 3 Xrotation Yrotation Zrotation
									JOINT LeftHandRing2
									{
										OFFSET 6.337502 0.000000 0.000000
										CHANNELS 3 Xrotation Yrotation Zrotation
										JOINT LeftHandRing3
										{
											OFFSET 5.779297 0.000000 0.000000
											CHANNELS 3 Xrotation Yrotation Zrotation
											JOINT LeftHandRing4
											{
												OFFSET 4.965698 0.000000 0.000000
												CHANNELS 3 Xrotation Yrotation Zrotation
												End Site
												{
													OFFSET 0.000000 4.965668 0.016186
												}
											}
										}
									}
								}
								JOINT LeftHandPinky1
								{
									OFFSET 20.037003 -1.530319 -10.950146
									CHANNELS 3 Xrotation Yrotation Zrotation
									JOINT LeftHandPinky2
									{
										OFFSET 5.254700 0.000000 0.000000
										CHANNELS 3 Xrotation Yrotation Zrotation
										JOINT LeftHandPinky3
										{
											OFFSET 4.810204 0.000000 0.000000
											CHANNELS 3 Xrotation Yrotation Zrotation
											JOINT LeftHandPinky4
											{
												OFFSET 3.647202 0.000000 0.000000
												CHANNELS 3 Xrotation Yrotation Zrotation
												End Site
												{
													OFFSET 0.000000 3.647186 0.011889
												}
											}
										}
									}
								}
							}
						}
					}
				}
				JOINT RightShoulder
				{
					OFFSET -15.141001 14.495407 -7.737500
					CHANNELS 3 Xrotation Yrotation Zrotation
					JOINT RightArm
					{
						OFFSET -9.308998 -2.777710 0.208500
						CHANNELS 3 Xrotation Yrotation Zrotation
						JOINT RightForeArm
						{
							OFFSET -29.972300 0.000000 0.000000
							CHANNELS 3 Xrotation Yrotation Zrotation
							JOINT RightHand
							{
								OFFSET -26.026505 0.000000 0.000000
								CHANNELS 3 Xrotation Yrotation Zrotation
								JOINT RightHandThumb1
								{
									OFFSET -12.240601 -7.148026 9.207092
									CHANNELS 3 Xrotation Yrotation Zrotation
									JOINT RightHandThumb2
									{
										OFFSET -4.138618 -2.389435 2.389433
										CHANNELS 3 Xrotation Yrotation Zrotation
										JOINT RightHandThumb3
										{
											OFFSET -2.726974 -1.574417 1.574421
											CHANNELS 3 Xrotation Yrotation Zrotation
											JOINT RightHandThumb4
											{
												OFFSET -3.941010 -2.275345 2.275343
												CHANNELS 3 Xrotation Yrotation Zrotation
												End Site
												{
													OFFSET 0.005814 5.087799 0.009927
												}
											}
										}
									}
								}
								JOINT RightHandIndex1
								{
									OFFSET -24.424698 -1.985657 5.953444
									CHANNELS 3 Xrotation Yrotation Zrotation
									JOINT RightHandIndex2
									{
										OFFSET -6.426697 0.000000 0.000000
										CHANNELS 3 Xrotation Yrotation Zrotation
										JOINT RightHandIndex3
										{
											OFFSET -5.337898 0.000000 0.000000
											CHANNELS 3 Xrotation Yrotation Zrotation
											JOINT RightHandIndex4
											{
												OFFSET -4.409401 0.000000 0.000000
												CHANNELS 3 Xrotation Yrotation Zrotation
												End Site
												{
													OFFSET 0.000000 4.409363 0.014408
												}
											}
										}
									}
								}
								JOINT RightHandMiddle1
								{
									OFFSET -23.810097 0.000000 0.000000
									CHANNELS 3 Xrotation Yrotation Zrotation
									JOINT RightHandMiddle2
									{
										OFFSET -7.176498 0.000000 0.000000
										CHANNELS 3 Xrotation Yrotation Zrotation
										JOINT RightHandMiddle3
										{
											OFFSET -6.774902 0.000000 0.000000
											CHANNELS 3 Xrotation Yrotation Zrotation
											JOINT RightHandMiddle4
											{
												OFFSET -5.403328 0.000000 0.000000
												CHANNELS 3 Xrotation Yrotation Zrotation
												End Site
												{
													OFFSET 0.027702 5.403244 0.017457
												}
											}
										}
									}
								}
								JOINT RightHandRing1
								{
									OFFSET -22.908302 -0.839325 -6.020576
									CHANNELS 3 Xrotation Yrotation Zrotation
									JOINT RightHandRing2
									{
										OFFSET -6.337502 0.000000 0.000000
										CHANNELS 3 Xrotation Yrotation Zrotation
										JOINT RightHandRing3
										{
											OFFSET -5.779297 0.000000 0.000000
											CHANNELS 3 Xrotation Yrotation Zrotation
											JOINT RightHandRing4
											{
												OFFSET -4.965698 0.000000 0.000000
												CHANNELS 3 Xrotation Yrotation Zrotation
												End Site
												{
													OFFSET 0.000000 4.965668 0.016226
												}
											}
										}
									}
								}
								JOINT RightHandPinky1
								{
									OFFSET -20.037003 -1.530334 -10.950259
									CHANNELS 3 Xrotation Yrotation Zrotation
									JOINT RightHandPinky2
									{
										OFFSET -5.254700 0.000000 0.000000
										CHANNELS 3 Xrotation Yrotation Zrotation
										JOINT RightHandPinky3
										{
											OFFSET -4.810204 0.000000 0.000000
											CHANNELS 3 Xrotation Yrotation Zrotation
											JOINT RightHandPinky4
											{
												OFFSET -3.647202 0.000000 0.000000
												CHANNELS 3 Xrotation Yrotation Zrotation
												End Site
												{
													OFFSET 0.000000 3.647186 0.011917
												}
											}
										}
									}
								}
							}
						}
					}
				}
			}
		}
	}
	JOINT LeftUpLeg
	{
		OFFSET 15.427100 -6.655098 0.678600
		CHANNELS 3 Xrotation Yrotation Zrotation
		JOINT LeftLeg
		{
			OFFSET 4.081073 -39.591068 13.024000
			CHANNELS 3 Xrotation Yrotation Zrotation
			JOINT LeftFoot
			{
				OFFSET -4.081074 -37.707932 -15.979700
				CHANNELS 3 Xrotation Yrotation Zrotation
				JOINT LeftToeBase
				{
					OFFSET 5.346399 -15.068900 20.645000
					CHANNELS 3 Xrotation Yrotation Zrotation
					JOINT LeftToe_End
					{
						OFFSET 2.754700 0.931300 11.300900
						CHANNELS 3 Xrotation Yrotation Zrotation
						End Site
						{
							OFFSET 0.000000 11.669021 0.000000
						}
					}
				}
			}
		}
	}
	JOINT RightUpLeg
	{
		OFFSET -15.569500 -6.655098 0.678600
		CHANNELS 3 Xrotation Yrotation Zrotation
		JOINT RightLeg
		{
			OFFSET -4.081825 -39.591045 13.023800
			CHANNELS 3 Xrotation Yrotation Zrotation
			JOINT RightFoot
			{
				OFFSET 4.081824 -37.707954 -15.979600
				CHANNELS 3 Xrotation Yrotation Zrotation
				JOINT RightToeBase
				{
					OFFSET -5.346400 -15.068900 20.645000
					CHANNELS 3 Xrotation Yrotation Zrotation
					JOINT RightToe_End
					{
						OFFSET -2.754700 0.931300 11.300900
						CHANNELS 3 Xrotation Yrotation Zrotation
						End Site
						{
							OFFSET 0.000000 11.669021 0.000000
						}
					}
				}
			}
		}
	}
}
MOTION
Frames: 4
Frame Time: 0.033333
0.601277 61.974335 -0.359999 -8.550996 -68.878339 -6.026769 3.644223 2.508968 -0.005414 3.608108 1.846842 0.749606 3.561746 1.937972 0.703335 5.883843 6.374787 0.637305 -0.514163 36.698849 -10.367773 0.000000 -0.000001 0.000000 0.753798 -4.931957 1.886311 -31.152496 -6.082451 -12.088754 -0.000011 -55.437852 -0.000013 4.237629 39.908078 14.013549 36.708442 21.276825 -25.687570 -9.221695 45.465380 17.166048 -4.225656 20.763879 9.062599 -0.000000 0.000000 -0.000001 5.780074 6.792925 -80.770272 7.886747 6.807691 -98.422678 2.370775 5.202195 -48.976428 -0.000000 -0.000000 0.000003 5.778173 6.792621 -80.754071 7.888654 6.807398 -98.438865 2.370771 5.202198 -48.976418 -0.000000 -0.000000 -0.000000 5.780075 6.792925 -80.770272 7.886750 6.807694 -98.422678 2.370775 5.202194 -48.976428 -0.000000 -0.000000 -0.000001 9.812894 7.443847 -80.759781 7.882520 2.721716 -98.371738 2.370774 5.202197 -48.976425 -0.000001 -0.000000 -0.000000 0.551626 0.644969 7.090334 -53.500943 61.298673 61.067430 0.000012 102.807078 -0.000015 27.122592 -8.533158 -0.704874 24.767436 -13.391395 12.839416 42.036669 -41.685997 18.077624 13.468090 -18.976344 2.733747 -0.000000 0.000000 -0.000001 4.248760 -6.404784 67.087641 7.395893 -6.933869 93.703003 2.182771 -5.062349 46.627157 0.000001 -0.000000 0.000000 4.248759 -6.404783 67.087641 7.395899 -6.933873 93.703010 2.182769 -5.062352 46.627157 -0.000001 -0.000000 -0.000000 4.248756 -6.404785 67.087634 7.395900 -6.933875 93.702996 2.182771 -5.062351 46.627161 0.000001 -0.000000 -0.000001 4.248760 -6.404784 67.087641 7.395906 -6.933879 93.703010 2.182769 -5.062345 46.627164 -0.000002 -0.000000 -0.000001 -38.940749 -0.127092 49.489174 65.899632 -1.093084 -8.770587 -4.959771 9.614366 -27.585135 -0.534831 -0.000009 0.000003 0.000000 -0.000000 -0.000000 -30.555316 12.977569 -31.988337 70.005635 6.783725 -3.457513 -28.269557 -10.569125 28.151489 -0.023669 0.000000 0.000001 0.000000 0.000001 0.000000 
0.605011 61.870544 -0.226099 -8.911765 -68.736592 -6.342642 3.811262 2.478179 0.171877 3.703132 1.830424 0.835367 3.655928 1.926996 0.789604 5.886461 6.343062 0.633287 -0.520842 36.532144 -10.363313 -0.000000 -0.000001 -0.000000 0.763387 -5.032371 1.969037 -30.714387 -5.815775 -11.993545 0.000005 -55.551308 0.000014 3.461526 39.886884 14.388581 36.708445 21.276828 -25.687570 -9.221694 45.465380 17.166051 -4.225656 20.763874 9.062596 -0.000000 -0.000001 -0.000000 5.780079 6.792925 -80.770272 7.886748 6.807692 -98.422678 2.370775 5.202196 -48.976425 0.000000 -0.000001 0.000001 5.778171 6.792622 -80.754071 7.888655 6.807398 -98.438865 2.370772 5.202198 -48.976418 0.000001 0.000000 0.000001 5.780080 6.792926 -80.770272 7.886750 6.807694 -98.422671 2.370776 5.202193 -48.976428 0.000001 -0.000000 -0.000002 9.812894 7.443848 -80.759774 7.882518 2.721717 -98.371738 2.370774 5.202196 -48.976425 0.000000 -0.000000 0.000002 0.540753 0.823163 6.421112 -53.906940 60.894586 61.591299 -0.000061 103.001397 0.000057 27.690171 -8.571569 -0.656379 24.767434 -13.391395 12.839419 42.036669 -41.685997 18.077626 13.468090 -18.976349 2.733746 0.000000 0.000000 0.000002 4.248758 -6.404783 67.087641 7.395894 -6.933871 93.703003 2.182772 -5.062350 46.627164 0.000001 -0.000000 -0.000000 4.248759 -6.404783 67.087648 7.395899 -6.933872 93.703003 2.182769 -5.062352 46.627150 0.000003 -0.000000 -0.000001 4.248756 -6.404785 67.087634 7.395900 -6.933876 93.702996 2.182772 -5.062351 46.627164 -0.000000 -0.000000 -0.000001 4.248760 -6.404784 67.087648 7.395906 -6.933880 93.703003 2.182771 -5.062345 46.627161 -0.000002 -0.000000 -0.000000 -39.053184 -0.057887 49.500071 66.195004 -1.048045 -8.667192 -5.172949 9.312999 -27.482518 -0.564841 0.000009 -0.000004 -0.000000 0.000000 0.000000 -30.242619 12.937931 -32.301850 69.994187 6.930280 -3.374068 -28.349284 -10.635195 28.243874 -0.023129 0.000017 0.000007 -0.000000 -0.000001 0.000000 
0.618833 61.820633 -0.098632 -9.314512 -68.661119 -6.717609 3.997129 2.521790 0.333985 3.796004 1.866877 0.928537 3.746952 1.968131 0.882892 5.912914 6.293787 0.638180 -0.440587 36.299942 -10.422473 -0.000000 0.000002 -0.000001 0.777983 -5.174398 2.070541 -30.277395 -5.614218 -11.862431 -0.000003 -55.640241 -0.000003 2.782941 39.820218 14.609937 36.708445 21.276828 -25.687570 -9.221694 45.465380 17.166048 -4.225657 20.763878 9.062594 -0.000001 0.000000 0.000002 5.780076 6.792925 -80.770272 7.886748 6.807691 -98.422678 2.370776 5.202197 -48.976425 -0.000000 0.000000 -0.000001 5.778171 6.792621 -80.754064 7.888656 6.807400 -98.438865 2.370771 5.202198 -48.976418 -0.000001 -0.000001 0.000002 5.780076 6.792925 -80.770272 7.886749 6.807694 -98.422678 2.370778 5.202194 -48.976428 -0.000000 0.000001 0.000002 9.812894 7.443848 -80.759781 7.882519 2.721716 -98.371738 2.370775 5.202197 -48.976425 -0.000001 0.000001 -0.000000 0.534260 1.015999 5.782982 -54.208735 60.441512 61.965614 0.000266 103.347770 -0.000268 28.274014 -8.730139 -0.548657 24.767434 -13.391396 12.839417 42.036669 -41.685997 18.077626 13.468091 -18.976347 2.733744 -0.000001 -0.000000 -0.000003 4.248759 -6.404784 67.087641 7.395894 -6.933870 93.703003 2.182771 -5.062351 46.627161 -0.000001 0.000000 -0.000001 4.248759 -6.404783 67.087641 7.395898 -6.933871 93.703003 2.182768 -5.062353 46.627154 0.000001 -0.000000 0.000002 4.248756 -6.404786 67.087634 7.395900 -6.933875 93.702990 2.182771 -5.062351 46.627161 -0.000000 0.000000 -0.000000 4.248760 -6.404784 67.087641 7.395906 -6.933879 93.703010 2.182769 -5.062345 46.627157 -0.000002 -0.000000 -0.000001 -39.125653 0.100512 49.536405 66.414874 -0.997586 -8.549971 -5.376173 9.029984 -27.370424 -0.622993 -0.000026 0.000004 0.000000 0.000001 0.000000 -29.960372 12.909699 -32.520552 69.920421 7.049458 -3.308589 -28.365229 -10.669776 28.300539 -0.022558 -0.000019 0.000011 -0.000000 0.000000 0.000000 
0.650202 61.867989 -0.014380 -9.778812 -68.754433 -7.205832 4.211647 2.740955 0.436321 3.883035 2.027227 1.026900 3.830343 2.130743 0.980456 5.965651 6.212838 0.637924 -0.231605 35.924425 -10.586734 -0.000000 -0.000001 0.000000 0.798412 -5.371569 2.162331 -29.913879 -5.605148 -11.658282 0.000032 -55.689883 0.000023 2.444535 39.632869 14.417713 36.708449 21.276826 -25.687570 -9.221696 45.465386 17.166050 -4.225657 20.763876 9.062592 -0.000000 -0.000000 -0.000000 5.780079 6.792924 -80.770272 7.886749 6.807692 -98.422678 2.370776 5.202196 -48.976428 -0.000000 -0.000000 0.000001 5.778174 6.792621 -80.754071 7.888656 6.807399 -98.438865 2.370771 5.202197 -48.976421 -0.000001 -0.000001 0.000003 5.780079 6.792924 -80.770272 7.886751 6.807695 -98.422678 2.370776 5.202194 -48.976425 -0.000000 0.000000 0.000001 9.812896 7.443847 -80.759781 7.882519 2.721717 -98.371738 2.370775 5.202196 -48.976425 0.000000 0.000001 -0.000000 0.529479 1.237812 5.143614 -54.407108 59.793525 62.179795 0.000123 104.003311 -0.000142 28.886004 -9.147607 -0.376864 24.767432 -13.391396 12.839424 42.036662 -41.686000 18.077626 13.468090 -18.976347 2.733747 -0.000001 0.000001 0.000003 4.248759 -6.404784 67.087641 7.395895 -6.933869 93.703003 2.182771 -5.062351 46.627161 -0.000001 0.000000 -0.000001 4.248759 -6.404783 67.087641 7.395899 -6.933872 93.703003 2.182765 -5.062353 46.627154 -0.000001 0.000000 -0.000000 4.248756 -6.404785 67.087641 7.395899 -6.933875 93.702996 2.182769 -5.062350 46.627161 -0.000000 0.000000 -0.000001 4.248759 -6.404784 67.087641 7.395907 -6.933880 93.703003 2.182768 -5.062346 46.627157 -0.000000 -0.000000 -0.000000 -39.116258 0.408316 49.661592 66.472412 -0.947893 -8.404602 -5.523653 8.816393 -27.279849 -0.744655 0.000005 0.000014 -0.000000 0.000000 0.000000 -29.809012 12.924012 -32.495315 69.757972 7.110492 -3.279165 -28.248819 -10.635217 28.282678 -0.021934 -0.000018 -0.000001 0.000000 -0.000000 -0.000000 
